<?xml version="1.0" encoding="UTF-8" standalone="no"?>
<!-- Created with Inkscape (http://www.inkscape.org/) -->

<svg
   xmlns:dc="http://purl.org/dc/elements/1.1/"
   xmlns:cc="http://creativecommons.org/ns#"
   xmlns:rdf="http://www.w3.org/1999/02/22-rdf-syntax-ns#"
   xmlns:svg="http://www.w3.org/2000/svg"
   xmlns="http://www.w3.org/2000/svg"
   xmlns:sodipodi="http://sodipodi.sourceforge.net/DTD/sodipodi-0.dtd"
   xmlns:inkscape="http://www.inkscape.org/namespaces/inkscape"
   version="1.1"
   id="svg514"
   xml:space="preserve"
   width="587.51996"
   height="276.47998"
   viewBox="0 0 587.51996 276.47998"
   sodipodi:docname="main.svg"
   inkscape:version="0.92.4 (5da689c313, 2019-01-14)"><metadata
     id="metadata520"><rdf:RDF><cc:Work
         rdf:about=""><dc:format>image/svg+xml</dc:format><dc:type
           rdf:resource="http://purl.org/dc/dcmitype/StillImage" /><dc:title></dc:title></cc:Work></rdf:RDF></metadata><defs
     id="defs518"><clipPath
       clipPathUnits="userSpaceOnUse"
       id="clipPath530"><path
         d="M 50.4,518.16 H 547.08 V 738 H 50.4 Z"
         id="path528"
         inkscape:connector-curvature="0"
         style="clip-rule:evenodd" /></clipPath><clipPath
       clipPathUnits="userSpaceOnUse"
       id="clipPath544"><path
         d="m 73.2,565.68 h 203.52 v 127.8 H 73.2 Z"
         id="path542"
         inkscape:connector-curvature="0"
         style="clip-rule:evenodd" /></clipPath><clipPath
       clipPathUnits="userSpaceOnUse"
       id="clipPath558"><path
         d="M 50.4,530.64 H 491.04 V 738 H 50.4 Z"
         id="path556"
         inkscape:connector-curvature="0"
         style="clip-rule:evenodd" /></clipPath><clipPath
       clipPathUnits="userSpaceOnUse"
       id="clipPath570"><path
         d="M 50.4,530.64 H 491.04 V 738 H 50.4 Z"
         id="path568"
         inkscape:connector-curvature="0"
         style="clip-rule:evenodd" /></clipPath><clipPath
       clipPathUnits="userSpaceOnUse"
       id="clipPath582"><path
         d="M 50.4,530.64 H 491.04 V 738 H 50.4 Z"
         id="path580"
         inkscape:connector-curvature="0"
         style="clip-rule:evenodd" /></clipPath><clipPath
       clipPathUnits="userSpaceOnUse"
       id="clipPath594"><path
         d="M 50.4,530.64 H 491.04 V 738 H 50.4 Z"
         id="path592"
         inkscape:connector-curvature="0"
         style="clip-rule:evenodd" /></clipPath><clipPath
       clipPathUnits="userSpaceOnUse"
       id="clipPath606"><path
         d="M 50.4,530.64 H 491.04 V 738 H 50.4 Z"
         id="path604"
         inkscape:connector-curvature="0"
         style="clip-rule:evenodd" /></clipPath><clipPath
       clipPathUnits="userSpaceOnUse"
       id="clipPath618"><path
         d="M 50.4,530.64 H 491.04 V 738 H 50.4 Z"
         id="path616"
         inkscape:connector-curvature="0"
         style="clip-rule:evenodd" /></clipPath><clipPath
       clipPathUnits="userSpaceOnUse"
       id="clipPath630"><path
         d="M 50.4,530.64 H 491.04 V 738 H 50.4 Z"
         id="path628"
         inkscape:connector-curvature="0"
         style="clip-rule:evenodd" /></clipPath><clipPath
       clipPathUnits="userSpaceOnUse"
       id="clipPath642"><path
         d="M 50.4,530.64 H 491.04 V 738 H 50.4 Z"
         id="path640"
         inkscape:connector-curvature="0"
         style="clip-rule:evenodd" /></clipPath><clipPath
       clipPathUnits="userSpaceOnUse"
       id="clipPath654"><path
         d="M 50.4,530.64 H 491.04 V 738 H 50.4 Z"
         id="path652"
         inkscape:connector-curvature="0"
         style="clip-rule:evenodd" /></clipPath><clipPath
       clipPathUnits="userSpaceOnUse"
       id="clipPath666"><path
         d="M 50.4,530.64 H 491.04 V 738 H 50.4 Z"
         id="path664"
         inkscape:connector-curvature="0"
         style="clip-rule:evenodd" /></clipPath><clipPath
       clipPathUnits="userSpaceOnUse"
       id="clipPath678"><path
         d="M 50.4,530.64 H 491.04 V 738 H 50.4 Z"
         id="path676"
         inkscape:connector-curvature="0"
         style="clip-rule:evenodd" /></clipPath><clipPath
       clipPathUnits="userSpaceOnUse"
       id="clipPath690"><path
         d="M 50.4,530.64 H 491.04 V 738 H 50.4 Z"
         id="path688"
         inkscape:connector-curvature="0"
         style="clip-rule:evenodd" /></clipPath><clipPath
       clipPathUnits="userSpaceOnUse"
       id="clipPath702"><path
         d="M 50.4,530.64 H 491.04 V 738 H 50.4 Z"
         id="path700"
         inkscape:connector-curvature="0"
         style="clip-rule:evenodd" /></clipPath><clipPath
       clipPathUnits="userSpaceOnUse"
       id="clipPath714"><path
         d="M 50.4,530.64 H 491.04 V 738 H 50.4 Z"
         id="path712"
         inkscape:connector-curvature="0"
         style="clip-rule:evenodd" /></clipPath><clipPath
       clipPathUnits="userSpaceOnUse"
       id="clipPath726"><path
         d="M 50.4,696.24 H 491.04 V 738 H 50.4 Z"
         id="path724"
         inkscape:connector-curvature="0"
         style="clip-rule:evenodd" /></clipPath><clipPath
       clipPathUnits="userSpaceOnUse"
       id="clipPath738"><path
         d="M 50.4,530.64 H 491.04 V 738 H 50.4 Z"
         id="path736"
         inkscape:connector-curvature="0"
         style="clip-rule:evenodd" /></clipPath><clipPath
       clipPathUnits="userSpaceOnUse"
       id="clipPath750"><path
         d="M 50.4,530.64 H 491.04 V 738 H 50.4 Z"
         id="path748"
         inkscape:connector-curvature="0"
         style="clip-rule:evenodd" /></clipPath><clipPath
       clipPathUnits="userSpaceOnUse"
       id="clipPath762"><path
         d="M 50.4,696.24 H 491.04 V 738 H 50.4 Z"
         id="path760"
         inkscape:connector-curvature="0"
         style="clip-rule:evenodd" /></clipPath><clipPath
       clipPathUnits="userSpaceOnUse"
       id="clipPath778"><path
         d="M 346.8,556.68 H 480.12 V 699.96 H 346.8 Z"
         id="path776"
         inkscape:connector-curvature="0"
         style="clip-rule:evenodd" /></clipPath><clipPath
       clipPathUnits="userSpaceOnUse"
       id="clipPath790"><path
         d="M 277.56,530.64 H 497.88 V 738 H 277.56 Z"
         id="path788"
         inkscape:connector-curvature="0"
         style="clip-rule:evenodd" /></clipPath><clipPath
       clipPathUnits="userSpaceOnUse"
       id="clipPath802"><path
         d="M 277.56,530.64 H 497.88 V 738 H 277.56 Z"
         id="path800"
         inkscape:connector-curvature="0"
         style="clip-rule:evenodd" /></clipPath><clipPath
       clipPathUnits="userSpaceOnUse"
       id="clipPath814"><path
         d="M 277.56,530.64 H 497.88 V 738 H 277.56 Z"
         id="path812"
         inkscape:connector-curvature="0"
         style="clip-rule:evenodd" /></clipPath><clipPath
       clipPathUnits="userSpaceOnUse"
       id="clipPath826"><path
         d="M 277.56,530.64 H 497.88 V 738 H 277.56 Z"
         id="path824"
         inkscape:connector-curvature="0"
         style="clip-rule:evenodd" /></clipPath><clipPath
       clipPathUnits="userSpaceOnUse"
       id="clipPath838"><path
         d="M 277.56,530.64 H 497.88 V 738 H 277.56 Z"
         id="path836"
         inkscape:connector-curvature="0"
         style="clip-rule:evenodd" /></clipPath><clipPath
       clipPathUnits="userSpaceOnUse"
       id="clipPath850"><path
         d="M 277.56,530.64 H 497.88 V 738 H 277.56 Z"
         id="path848"
         inkscape:connector-curvature="0"
         style="clip-rule:evenodd" /></clipPath><clipPath
       clipPathUnits="userSpaceOnUse"
       id="clipPath862"><path
         d="M 277.56,530.64 H 497.88 V 738 H 277.56 Z"
         id="path860"
         inkscape:connector-curvature="0"
         style="clip-rule:evenodd" /></clipPath><clipPath
       clipPathUnits="userSpaceOnUse"
       id="clipPath874"><path
         d="M 277.56,530.64 H 497.88 V 738 H 277.56 Z"
         id="path872"
         inkscape:connector-curvature="0"
         style="clip-rule:evenodd" /></clipPath><clipPath
       clipPathUnits="userSpaceOnUse"
       id="clipPath886"><path
         d="M 277.56,530.64 H 497.88 V 738 H 277.56 Z"
         id="path884"
         inkscape:connector-curvature="0"
         style="clip-rule:evenodd" /></clipPath><clipPath
       clipPathUnits="userSpaceOnUse"
       id="clipPath898"><path
         d="M 277.56,530.64 H 497.88 V 738 H 277.56 Z"
         id="path896"
         inkscape:connector-curvature="0"
         style="clip-rule:evenodd" /></clipPath><clipPath
       clipPathUnits="userSpaceOnUse"
       id="clipPath910"><path
         d="M 277.56,530.64 H 497.88 V 738 H 277.56 Z"
         id="path908"
         inkscape:connector-curvature="0"
         style="clip-rule:evenodd" /></clipPath><clipPath
       clipPathUnits="userSpaceOnUse"
       id="clipPath922"><path
         d="M 277.56,530.64 H 497.88 V 738 H 277.56 Z"
         id="path920"
         inkscape:connector-curvature="0"
         style="clip-rule:evenodd" /></clipPath><clipPath
       clipPathUnits="userSpaceOnUse"
       id="clipPath934"><path
         d="M 277.56,530.64 H 497.88 V 738 H 277.56 Z"
         id="path932"
         inkscape:connector-curvature="0"
         style="clip-rule:evenodd" /></clipPath><clipPath
       clipPathUnits="userSpaceOnUse"
       id="clipPath946"><path
         d="M 277.56,530.64 H 497.88 V 738 H 277.56 Z"
         id="path944"
         inkscape:connector-curvature="0"
         style="clip-rule:evenodd" /></clipPath><clipPath
       clipPathUnits="userSpaceOnUse"
       id="clipPath958"><path
         d="M 277.56,530.64 H 497.88 V 738 H 277.56 Z"
         id="path956"
         inkscape:connector-curvature="0"
         style="clip-rule:evenodd" /></clipPath><clipPath
       clipPathUnits="userSpaceOnUse"
       id="clipPath970"><path
         d="M 277.56,530.64 H 497.88 V 738 H 277.56 Z"
         id="path968"
         inkscape:connector-curvature="0"
         style="clip-rule:evenodd" /></clipPath><clipPath
       clipPathUnits="userSpaceOnUse"
       id="clipPath982"><path
         d="M 277.56,530.64 H 497.88 V 738 H 277.56 Z"
         id="path980"
         inkscape:connector-curvature="0"
         style="clip-rule:evenodd" /></clipPath><clipPath
       clipPathUnits="userSpaceOnUse"
       id="clipPath994"><path
         d="M 277.56,530.64 H 497.88 V 738 H 277.56 Z"
         id="path992"
         inkscape:connector-curvature="0"
         style="clip-rule:evenodd" /></clipPath><clipPath
       clipPathUnits="userSpaceOnUse"
       id="clipPath1006"><path
         d="M 277.56,530.64 H 497.88 V 738 H 277.56 Z"
         id="path1004"
         inkscape:connector-curvature="0"
         style="clip-rule:evenodd" /></clipPath></defs><sodipodi:namedview
     pagecolor="#ffffff"
     bordercolor="#666666"
     borderopacity="1"
     objecttolerance="10"
     gridtolerance="10"
     guidetolerance="10"
     inkscape:pageopacity="0"
     inkscape:pageshadow="2"
     inkscape:window-width="2560"
     inkscape:window-height="1378"
     id="namedview516"
     showgrid="false"
     inkscape:pagecheckerboard="true"
     inkscape:zoom="1.03"
     inkscape:cx="340.8"
     inkscape:cy="-179.51998"
     inkscape:window-x="-8"
     inkscape:window-y="-8"
     inkscape:window-maximized="1"
     inkscape:current-layer="g522" /><g
     id="g522"
     inkscape:groupmode="layer"
     inkscape:label="main"
     transform="matrix(1.3333333,0,0,-1.3333333,-67.199998,983.99998)"><g
       id="g524"><g
         id="g526"
         clip-path="url(#clipPath530)"><path
           d="M 50.4,530.64 H 491.04 V 738 H 50.4 Z"
           style="fill:#ffffff;fill-opacity:1;fill-rule:evenodd;stroke:none"
           id="path532"
           inkscape:connector-curvature="0" /></g></g><path
       d="M 73.219,587.52 H 276 M 73.219,608.64 H 276 M 73.219,629.88 H 276 M 73.219,651 H 276 M 73.219,672.24 H 276 M 73.219,693.36 H 276"
       style="fill:none;stroke:#d9d9d9;stroke-width:0.75;stroke-linecap:butt;stroke-linejoin:round;stroke-miterlimit:10;stroke-dasharray:none;stroke-opacity:1"
       id="path534"
       inkscape:connector-curvature="0" /><path
       d="m 73.219,569.04 h 3.341 v -2.68 h -3.341 z m 3.341,-1.44 h 3.36 v -1.24 h -3.36 z m 3.36,2.52 h 3.48 v -3.76 h -3.48 z m 3.48,5.52 h 3.36 v -9.28 H 83.4 Z m 6.72,0.96 h 3.36 v -10.24 h -3.36 z m 3.36,-8.88 h 3.36 v -1.36 h -3.36 z m 3.36,28.92 h 3.36 v -30.28 h -3.36 z m 3.36,-13.08 h 3.48 v -17.2 h -3.48 z m 3.48,-14.76 h 3.36 v -2.44 h -3.36 z m 3.36,8.4 h 3.36 v -10.84 h -3.36 z m 3.36,-6.84 h 3.36 v -4 h -3.36 z m 3.36,5.28 h 3.36 v -9.28 h -3.36 z m 3.36,97.32 h 3.36 v -106.6 h -3.36 z m 3.36,-88.2 h 3.48 v -18.4 h -3.48 z m 3.48,-10.2 h 3.36 v -8.2 h -3.36 z m 3.36,-2.52 h 3.36 v -5.68 h -3.36 z m 3.36,11.88 h 3.36 v -17.56 h -3.36 z m 3.36,8.88 h 3.36 v -26.44 h -3.36 z m 3.36,0.96 h 3.36 v -27.4 h -3.36 z m 3.36,-21.72 h 3.48 v -5.68 h -3.48 z m 3.48,-2.64 h 3.36 v -3.04 h -3.36 z m 3.36,-0.36 h 3.36 v -2.68 h -3.36 z m 3.36,0.72 h 3.36 v -3.4 h -3.36 z m 3.36,26.52 h 3.36 v -29.92 h -3.36 z m 3.36,33.6 h 3.36 v -63.52 h -3.36 z m 6.84,-59.28 h 3.36 v -4.24 h -3.36 z m 13.44,24.6 h 3.36 v -28.84 h -3.36 z m 6.84,-27.96 h 3.36 v -0.88 h -3.36 z m 6.72,21 h 3.36 v -21.88 h -3.36 z m 23.64,-14.88 h 3.36 v -7 h -3.36 z M 249,567.24 h 3.36 v -0.88 H 249 Z"
       style="fill:#0096d7;fill-opacity:1;fill-rule:nonzero;stroke:none"
       id="path536"
       inkscape:connector-curvature="0" /><g
       id="g538"><g
         id="g540"
         clip-path="url(#clipPath544)"><path
           d="m 73.219,569.04 h 3.341 v -2.68 h -3.341 z m 3.341,-1.44 h 3.36 v -1.24 h -3.36 z m 3.36,2.52 h 3.48 v -3.76 h -3.48 z m 3.48,5.52 h 3.36 v -9.28 H 83.4 Z m 6.72,0.96 h 3.36 v -10.24 h -3.36 z m 3.36,-8.88 h 3.36 v -1.36 h -3.36 z m 3.36,28.92 h 3.36 v -30.28 h -3.36 z m 3.36,-13.08 h 3.48 v -17.2 h -3.48 z m 3.48,-14.76 h 3.36 v -2.44 h -3.36 z m 3.36,8.4 h 3.36 v -10.84 h -3.36 z m 3.36,-6.84 h 3.36 v -4 h -3.36 z m 3.36,5.28 h 3.36 v -9.28 h -3.36 z m 3.36,97.32 h 3.36 v -106.6 h -3.36 z m 3.36,-88.2 h 3.48 v -18.4 h -3.48 z m 3.48,-10.2 h 3.36 v -8.2 h -3.36 z m 3.36,-2.52 h 3.36 v -5.68 h -3.36 z m 3.36,11.88 h 3.36 v -17.56 h -3.36 z m 3.36,8.88 h 3.36 v -26.44 h -3.36 z m 3.36,0.96 h 3.36 v -27.4 h -3.36 z m 3.36,-21.72 h 3.48 v -5.68 h -3.48 z m 3.48,-2.64 h 3.36 v -3.04 h -3.36 z m 3.36,-0.36 h 3.36 v -2.68 h -3.36 z m 3.36,0.72 h 3.36 v -3.4 h -3.36 z m 3.36,26.52 h 3.36 v -29.92 h -3.36 z m 3.36,33.6 h 3.36 v -63.52 h -3.36 z m 6.84,-59.28 h 3.36 v -4.24 h -3.36 z m 13.44,24.6 h 3.36 v -28.84 h -3.36 z m 6.84,-27.96 h 3.36 v -0.88 h -3.36 z m 6.72,21 h 3.36 v -21.88 h -3.36 z m 23.64,-14.88 h 3.36 v -7 h -3.36 z M 249,567.24 h 3.36 v -0.88 H 249 Z"
           style="fill:none;stroke:#0071a1;stroke-width:0.75;stroke-linecap:butt;stroke-linejoin:round;stroke-miterlimit:10;stroke-dasharray:none;stroke-opacity:1"
           id="path546"
           inkscape:connector-curvature="0" /></g></g><path
       d="M 73.219,566.36 H 276"
       style="fill:none;stroke:#000000;stroke-width:0.75;stroke-linecap:butt;stroke-linejoin:round;stroke-miterlimit:10;stroke-dasharray:none;stroke-opacity:1"
       id="path548"
       inkscape:connector-curvature="0" /><path
       d="m 73.219,566.36 v -3.02 m 33.821,3.02 v -3.02 m 33.72,3.02 v -3.02 m 33.84,3.02 v -3.02 m 33.84,3.02 v -3.02 m 33.72,3.02 v -3.02 m 33.84,3.02 v -3.02"
       style="fill:none;stroke:#000000;stroke-width:0.75;stroke-linecap:butt;stroke-linejoin:round;stroke-miterlimit:10;stroke-dasharray:none;stroke-opacity:1"
       id="path550"
       inkscape:connector-curvature="0" /><g
       id="g552"><g
         id="g554"
         clip-path="url(#clipPath558)"><text
           transform="matrix(1,0,0,-1,59.064,563.21)"
           style="font-variant:normal;font-weight:normal;font-size:9.96000004px;font-family:Arial;-inkscape-font-specification:ArialMT;writing-mode:lr-tb;fill:#000000;fill-opacity:1;fill-rule:nonzero;stroke:none"
           id="text562"><tspan
             x="0"
             y="0"
             id="tspan560">0</tspan></text>
</g></g><g
       id="g564"><g
         id="g566"
         clip-path="url(#clipPath570)"><text
           transform="matrix(1,0,0,-1,59.064,584.38)"
           style="font-variant:normal;font-weight:normal;font-size:9.96000004px;font-family:Arial;-inkscape-font-specification:ArialMT;writing-mode:lr-tb;fill:#000000;fill-opacity:1;fill-rule:nonzero;stroke:none"
           id="text574"><tspan
             x="0"
             y="0"
             id="tspan572">1</tspan></text>
</g></g><g
       id="g576"><g
         id="g578"
         clip-path="url(#clipPath582)"><text
           transform="matrix(1,0,0,-1,59.064,605.54)"
           style="font-variant:normal;font-weight:normal;font-size:9.96000004px;font-family:Arial;-inkscape-font-specification:ArialMT;writing-mode:lr-tb;fill:#000000;fill-opacity:1;fill-rule:nonzero;stroke:none"
           id="text586"><tspan
             x="0"
             y="0"
             id="tspan584">2</tspan></text>
</g></g><g
       id="g588"><g
         id="g590"
         clip-path="url(#clipPath594)"><text
           transform="matrix(1,0,0,-1,59.064,626.71)"
           style="font-variant:normal;font-weight:normal;font-size:9.96000004px;font-family:Arial;-inkscape-font-specification:ArialMT;writing-mode:lr-tb;fill:#000000;fill-opacity:1;fill-rule:nonzero;stroke:none"
           id="text598"><tspan
             x="0"
             y="0"
             id="tspan596">3</tspan></text>
</g></g><g
       id="g600"><g
         id="g602"
         clip-path="url(#clipPath606)"><text
           transform="matrix(1,0,0,-1,59.064,647.88)"
           style="font-variant:normal;font-weight:normal;font-size:9.96000004px;font-family:Arial;-inkscape-font-specification:ArialMT;writing-mode:lr-tb;fill:#000000;fill-opacity:1;fill-rule:nonzero;stroke:none"
           id="text610"><tspan
             x="0"
             y="0"
             id="tspan608">4</tspan></text>
</g></g><g
       id="g612"><g
         id="g614"
         clip-path="url(#clipPath618)"><text
           transform="matrix(1,0,0,-1,59.064,669.05)"
           style="font-variant:normal;font-weight:normal;font-size:9.96000004px;font-family:Arial;-inkscape-font-specification:ArialMT;writing-mode:lr-tb;fill:#000000;fill-opacity:1;fill-rule:nonzero;stroke:none"
           id="text622"><tspan
             x="0"
             y="0"
             id="tspan620">5</tspan></text>
</g></g><g
       id="g624"><g
         id="g626"
         clip-path="url(#clipPath630)"><text
           transform="matrix(1,0,0,-1,59.064,690.22)"
           style="font-variant:normal;font-weight:normal;font-size:9.96000004px;font-family:Arial;-inkscape-font-specification:ArialMT;writing-mode:lr-tb;fill:#000000;fill-opacity:1;fill-rule:nonzero;stroke:none"
           id="text634"><tspan
             x="0"
             y="0"
             id="tspan632">6</tspan></text>
</g></g><g
       id="g636"><g
         id="g638"
         clip-path="url(#clipPath642)"><text
           transform="matrix(1,0,0,-1,57.96,551.28)"
           style="font-variant:normal;font-weight:normal;font-size:9.96000004px;font-family:Arial;-inkscape-font-specification:ArialMT;writing-mode:lr-tb;fill:#000000;fill-opacity:1;fill-rule:nonzero;stroke:none"
           id="text646"><tspan
             x="0 5.5377598 11.14524 16.683001 22.18092 25.0494 30.58716"
             y="0"
             sodipodi:role="line"
             id="tspan644">1960 or</tspan></text>
</g></g><g
       id="g648"><g
         id="g650"
         clip-path="url(#clipPath654)"><text
           transform="matrix(1,0,0,-1,60.744,539.78)"
           style="font-variant:normal;font-weight:normal;font-size:9.96000004px;font-family:Arial;-inkscape-font-specification:ArialMT;writing-mode:lr-tb;fill:#000000;fill-opacity:1;fill-rule:nonzero;stroke:none"
           id="text658"><tspan
             x="0 5.5377598 11.14524 13.91412 19.45188 22.76856"
             y="0"
             sodipodi:role="line"
             id="tspan656">before</tspan></text>
</g></g><g
       id="g660"><g
         id="g662"
         clip-path="url(#clipPath666)"><text
           transform="matrix(1,0,0,-1,97.608,551.28)"
           style="font-variant:normal;font-weight:normal;font-size:9.96000004px;font-family:Arial;-inkscape-font-specification:ArialMT;writing-mode:lr-tb;fill:#000000;fill-opacity:1;fill-rule:nonzero;stroke:none"
           id="text670"><tspan
             x="0 5.5377598 11.14524 16.683001"
             y="0"
             sodipodi:role="line"
             id="tspan668">1970</tspan></text>
</g></g><g
       id="g672"><g
         id="g674"
         clip-path="url(#clipPath678)"><text
           transform="matrix(1,0,0,-1,131.4,551.28)"
           style="font-variant:normal;font-weight:normal;font-size:9.96000004px;font-family:Arial;-inkscape-font-specification:ArialMT;writing-mode:lr-tb;fill:#000000;fill-opacity:1;fill-rule:nonzero;stroke:none"
           id="text682"><tspan
             x="0 5.5377598 11.14524 16.683001"
             y="0"
             sodipodi:role="line"
             id="tspan680">1980</tspan></text>
</g></g><g
       id="g684"><g
         id="g686"
         clip-path="url(#clipPath690)"><text
           transform="matrix(1,0,0,-1,165.19,551.28)"
           style="font-variant:normal;font-weight:normal;font-size:9.96000004px;font-family:Arial;-inkscape-font-specification:ArialMT;writing-mode:lr-tb;fill:#000000;fill-opacity:1;fill-rule:nonzero;stroke:none"
           id="text694"><tspan
             x="0 5.5377598 11.19504 16.7328"
             y="0"
             sodipodi:role="line"
             id="tspan692">1990</tspan></text>
</g></g><g
       id="g696"><g
         id="g698"
         clip-path="url(#clipPath702)"><text
           transform="matrix(1,0,0,-1,199.01,551.28)"
           style="font-variant:normal;font-weight:normal;font-size:9.96000004px;font-family:Arial;-inkscape-font-specification:ArialMT;writing-mode:lr-tb;fill:#000000;fill-opacity:1;fill-rule:nonzero;stroke:none"
           id="text706"><tspan
             x="0 5.5377598 11.14524 16.683001"
             y="0"
             sodipodi:role="line"
             id="tspan704">2000</tspan></text>
</g></g><g
       id="g708"><g
         id="g710"
         clip-path="url(#clipPath714)"><text
           transform="matrix(1,0,0,-1,232.8,551.28)"
           style="font-variant:normal;font-weight:normal;font-size:9.96000004px;font-family:Arial;-inkscape-font-specification:ArialMT;writing-mode:lr-tb;fill:#000000;fill-opacity:1;fill-rule:nonzero;stroke:none"
           id="text718"><tspan
             x="0 5.5377598 11.14524 16.683001"
             y="0"
             sodipodi:role="line"
             id="tspan716">2010</tspan></text>
</g></g><g
       id="g720"><g
         id="g722"
         clip-path="url(#clipPath726)"><text
           transform="matrix(1,0,0,-1,52.56,726.48)"
           style="font-variant:normal;font-weight:bold;font-size:9.96000004px;font-family:Arial;-inkscape-font-specification:Arial-BoldMT;writing-mode:lr-tb;fill:#000000;fill-opacity:1;fill-rule:nonzero;stroke:none"
           id="text730"><tspan
             x="0 7.1911201 9.96 16.56348 19.332359 22.19088 28.29636 34.40184 39.939602 43.76424 49.301998 52.618679 55.387562 61.512959 67.618439 70.486923 76.5924 81.990723 88.096199 91.940758 98.046242 103.584 106.35288 111.8508 117.38856 120.70524 124.57968 127.34856 132.84648 136.07352 142.179 148.28448 157.13892 163.27428 168.81204 174.8976 177.66647 183.20424 186.54083 192.64632 196.49088 202.02864 208.1142 213.65196 216.52045 222.0582 227.55612 233.66161 239.19936 244.69728 247.46616 250.80276"
             y="0"
             sodipodi:role="line"
             id="tspan728">U.S. operating hydroelectric pumped storage capacity</tspan></text>
</g></g><g
       id="g732"><g
         id="g734"
         clip-path="url(#clipPath738)"><text
           transform="matrix(1,0,0,-1,52.56,714.96)"
           style="font-variant:normal;font-weight:bold;font-size:9.98400021px;font-family:Arial;-inkscape-font-specification:Arial-BoldMT;writing-mode:lr-tb;fill:#000000;fill-opacity:1;fill-rule:nonzero;stroke:none"
           id="text742"><tspan
             x="0 6.1200242"
             y="0"
             sodipodi:role="line"
             id="tspan740">by</tspan></text>
</g></g><g
       id="g744"><g
         id="g746"
         clip-path="url(#clipPath750)"><text
           transform="matrix(1,0,0,-1,66.96,714.96)"
           style="font-variant:normal;font-weight:bold;font-size:9.98400021px;font-family:Arial;-inkscape-font-specification:Arial-BoldMT;writing-mode:lr-tb;fill:#000000;fill-opacity:1;fill-rule:nonzero;stroke:none"
           id="text754"><tspan
             x="0 2.775552 8.8757763 12.2304 15.005952 20.507135 23.282688 26.138111 32.238335 38.368511 43.889664 47.733505 53.254658 56.60928 59.38483 65.485054 71.585281 74.480637 79.881981 85.403137 90.924286"
             y="0"
             sodipodi:role="line"
             id="tspan752">intial operating year</tspan></text>
</g></g><g
       id="g756"><g
         id="g758"
         clip-path="url(#clipPath762)"><text
           transform="matrix(1,0,0,-1,52.56,703.42)"
           style="font-variant:normal;font-weight:normal;font-size:9.96000004px;font-family:Arial;-inkscape-font-specification:ArialMT;writing-mode:lr-tb;fill:#000000;fill-opacity:1;fill-rule:nonzero;stroke:none"
           id="text766"><tspan
             x="0 5.5377598 7.6791601 13.21692 18.71484 25.7964 31.33416 34.103039 36.832081"
             y="0"
             sodipodi:role="line"
             id="tspan764">gigawatts</tspan></text>
</g></g><path
       d="M 379.92,699.91 V 557.35 m 33.12,142.56 V 557.35 m 33.24,142.56 V 557.35 m 33.09,142.56 V 557.35"
       style="fill:none;stroke:#d9d9d9;stroke-width:0.75;stroke-linecap:butt;stroke-linejoin:round;stroke-miterlimit:10;stroke-dasharray:none;stroke-opacity:1"
       id="path768"
       inkscape:connector-curvature="0" /><path
       d="m 410.28,559.8 h -63.46 v 8.04 h 63.46 z m -41.64,12.96 h -21.82 v 8.04 h 21.82 z m 24.84,12.96 h -46.66 v 8.04 h 46.66 z m 5.76,12.96 h -52.42 v 8.04 h 52.42 z m 1.2,12.96 h -53.62 v 8.04 h 53.62 z m 4.92,12.96 h -58.54 v 8.04 h 58.54 z m 3.12,12.96 h -61.66 v 8.04 h 61.66 z m 12.24,12.96 h -73.9 v 8.04 h 73.9 z m 16.08,12.96 h -89.98 v 8.04 h 89.98 z m 17.4,12.96 H 346.82 v 8.04 H 454.2 Z m 22.2,12.96 H 346.82 v 8.04 H 476.4 Z"
       style="fill:#0096d7;fill-opacity:1;fill-rule:nonzero;stroke:none"
       id="path770"
       inkscape:connector-curvature="0" /><g
       id="g772"><g
         id="g774"
         clip-path="url(#clipPath778)"><path
           d="m 410.28,559.8 h -63.46 v 8.04 h 63.46 z m -41.64,12.96 h -21.82 v 8.04 h 21.82 z m 24.84,12.96 h -46.66 v 8.04 h 46.66 z m 5.76,12.96 h -52.42 v 8.04 h 52.42 z m 1.2,12.96 h -53.62 v 8.04 h 53.62 z m 4.92,12.96 h -58.54 v 8.04 h 58.54 z m 3.12,12.96 h -61.66 v 8.04 h 61.66 z m 12.24,12.96 h -73.9 v 8.04 h 73.9 z m 16.08,12.96 h -89.98 v 8.04 h 89.98 z m 17.4,12.96 H 346.82 v 8.04 H 454.2 Z m 22.2,12.96 H 346.82 v 8.04 H 476.4 Z"
           style="fill:none;stroke:#0071a1;stroke-width:0.75;stroke-linecap:butt;stroke-linejoin:round;stroke-miterlimit:10;stroke-dasharray:none;stroke-opacity:1"
           id="path780"
           inkscape:connector-curvature="0" /></g></g><path
       d="M 346.82,557.35 V 699.91"
       style="fill:none;stroke:#000000;stroke-width:0.75;stroke-linecap:butt;stroke-linejoin:round;stroke-miterlimit:10;stroke-dasharray:none;stroke-opacity:1"
       id="path782"
       inkscape:connector-curvature="0" /><g
       id="g784"><g
         id="g786"
         clip-path="url(#clipPath790)"><text
           transform="matrix(1,0,0,-1,344.09,542.28)"
           style="font-variant:normal;font-weight:normal;font-size:9.96000004px;font-family:Arial;-inkscape-font-specification:ArialMT;writing-mode:lr-tb;fill:#000000;fill-opacity:1;fill-rule:nonzero;stroke:none"
           id="text794"><tspan
             x="0"
             y="0"
             id="tspan792">0</tspan></text>
</g></g><g
       id="g796"><g
         id="g798"
         clip-path="url(#clipPath802)"><text
           transform="matrix(1,0,0,-1,377.23,542.28)"
           style="font-variant:normal;font-weight:normal;font-size:9.96000004px;font-family:Arial;-inkscape-font-specification:ArialMT;writing-mode:lr-tb;fill:#000000;fill-opacity:1;fill-rule:nonzero;stroke:none"
           id="text806"><tspan
             x="0"
             y="0"
             id="tspan804">1</tspan></text>
</g></g><g
       id="g808"><g
         id="g810"
         clip-path="url(#clipPath814)"><text
           transform="matrix(1,0,0,-1,410.38,542.28)"
           style="font-variant:normal;font-weight:normal;font-size:9.96000004px;font-family:Arial;-inkscape-font-specification:ArialMT;writing-mode:lr-tb;fill:#000000;fill-opacity:1;fill-rule:nonzero;stroke:none"
           id="text818"><tspan
             x="0"
             y="0"
             id="tspan816">2</tspan></text>
</g></g><g
       id="g820"><g
         id="g822"
         clip-path="url(#clipPath826)"><text
           transform="matrix(1,0,0,-1,443.52,542.28)"
           style="font-variant:normal;font-weight:normal;font-size:9.96000004px;font-family:Arial;-inkscape-font-specification:ArialMT;writing-mode:lr-tb;fill:#000000;fill-opacity:1;fill-rule:nonzero;stroke:none"
           id="text830"><tspan
             x="0"
             y="0"
             id="tspan828">3</tspan></text>
</g></g><g
       id="g832"><g
         id="g834"
         clip-path="url(#clipPath838)"><text
           transform="matrix(1,0,0,-1,476.66,542.28)"
           style="font-variant:normal;font-weight:normal;font-size:9.96000004px;font-family:Arial;-inkscape-font-specification:ArialMT;writing-mode:lr-tb;fill:#000000;fill-opacity:1;fill-rule:nonzero;stroke:none"
           id="text842"><tspan
             x="0"
             y="0"
             id="tspan840">4</tspan></text>
</g></g><g
       id="g844"><g
         id="g846"
         clip-path="url(#clipPath850)"><text
           transform="matrix(1,0,0,-1,294.12,560.93)"
           style="font-variant:normal;font-weight:normal;font-size:9px;font-family:Arial;-inkscape-font-specification:ArialMT;writing-mode:lr-tb;fill:#000000;fill-opacity:1;fill-rule:nonzero;stroke:none"
           id="text854"><tspan
             x="0 2.997 8.0279999 12.465 14.967 17.496 22.527 24.93 27.431999 33.93 36.431999 42.435001"
             y="0"
             sodipodi:role="line"
             id="tspan852">rest of U.S.</tspan></text>
</g></g><g
       id="g856"><g
         id="g858"
         clip-path="url(#clipPath862)"><text
           transform="matrix(1,0,0,-1,305.64,573.89)"
           style="font-variant:normal;font-weight:normal;font-size:9px;font-family:Arial;-inkscape-font-specification:ArialMT;writing-mode:lr-tb;fill:#000000;fill-opacity:1;fill-rule:nonzero;stroke:none"
           id="text866"><tspan
             x="0 7.4429998 9.4770002 14.031 18.468 23.499001 28.530001 31.527"
             y="0"
             sodipodi:role="line"
             id="tspan864">Missouri</tspan></text>
</g></g><g
       id="g868"><g
         id="g870"
         clip-path="url(#clipPath874)"><text
           transform="matrix(1,0,0,-1,300.12,586.85)"
           style="font-variant:normal;font-weight:normal;font-size:9px;font-family:Arial;-inkscape-font-specification:ArialMT;writing-mode:lr-tb;fill:#000000;fill-opacity:1;fill-rule:nonzero;stroke:none"
           id="text878"><tspan
             x="0 6.4980001 11.502 18 20.502001 26.504999 31.554001 34.550999"
             y="0"
             sodipodi:role="line"
             id="tspan876">New York</tspan></text>
</g></g><g
       id="g880"><g
         id="g882"
         clip-path="url(#clipPath886)"><text
           transform="matrix(1,0,0,-1,285.6,599.81)"
           style="font-variant:normal;font-weight:normal;font-size:9px;font-family:Arial;-inkscape-font-specification:ArialMT;writing-mode:lr-tb;fill:#000000;fill-opacity:1;fill-rule:nonzero;stroke:none"
           id="text890"><tspan
             x="0 6.0029998 11.034 15.957 20.988001 25.542 29.979 32.013 36.450001 41.480999 46.512001 48.429001"
             y="0"
             sodipodi:role="line"
             id="tspan888">Pennsylvania</tspan></text>
</g></g><g
       id="g892"><g
         id="g894"
         clip-path="url(#clipPath898)"><text
           transform="matrix(1,0,0,-1,294.6,612.77)"
           style="font-variant:normal;font-weight:normal;font-size:9px;font-family:Arial;-inkscape-font-specification:ArialMT;writing-mode:lr-tb;fill:#000000;fill-opacity:1;fill-rule:nonzero;stroke:none"
           id="text902"><tspan
             x="0 5.4990001 10.548 15.471 20.502001 25.533001 29.969999 34.523998 39.446999"
             y="0"
             sodipodi:role="line"
             id="tspan900">Tennessee</tspan></text>
</g></g><g
       id="g904"><g
         id="g906"
         clip-path="url(#clipPath910)"><text
           transform="matrix(1,0,0,-1,279.1,625.73)"
           style="font-variant:normal;font-weight:normal;font-size:9px;font-family:Arial;-inkscape-font-specification:ArialMT;writing-mode:lr-tb;fill:#000000;fill-opacity:1;fill-rule:nonzero;stroke:none"
           id="text914"><tspan
             x="0 7.4429998 12.474 17.028 21.465 26.496 30.933001 35.964001 40.994999 45.431999 50.463001 52.965 55.493999"
             y="0"
             sodipodi:role="line"
             id="tspan912">Massachusetts</tspan></text>
</g></g><g
       id="g916"><g
         id="g918"
         clip-path="url(#clipPath922)"><text
           transform="matrix(1,0,0,-1,307.1,638.69)"
           style="font-variant:normal;font-weight:normal;font-size:9px;font-family:Arial;-inkscape-font-specification:ArialMT;writing-mode:lr-tb;fill:#000000;fill-opacity:1;fill-rule:nonzero;stroke:none"
           id="text926"><tspan
             x="0 6.9569998 11.988 17.018999 20.016001 24.938999 26.973"
             y="0"
             sodipodi:role="line"
             id="tspan924">Georgia</tspan></text>
</g></g><g
       id="g928"><g
         id="g930"
         clip-path="url(#clipPath934)"><text
           transform="matrix(1,0,0,-1,303.12,651.65)"
           style="font-variant:normal;font-weight:normal;font-size:9px;font-family:Arial;-inkscape-font-specification:ArialMT;writing-mode:lr-tb;fill:#000000;fill-opacity:1;fill-rule:nonzero;stroke:none"
           id="text938"><tspan
             x="0 7.4429998 9.4770002 14.031 18.954 20.988001 26.018999 30.941999"
             y="0"
             sodipodi:role="line"
             id="tspan936">Michigan</tspan></text>
</g></g><g
       id="g940"><g
         id="g942"
         clip-path="url(#clipPath946)"><text
           transform="matrix(1,0,0,-1,279.6,664.63)"
           style="font-variant:normal;font-weight:normal;font-size:9px;font-family:Arial;-inkscape-font-specification:ArialMT;writing-mode:lr-tb;fill:#000000;fill-opacity:1;fill-rule:nonzero;stroke:none"
           id="text950"><tspan
             x="0 6.0029998 11.034 15.957 18.459 23.507999 26.01 32.507999 37.539001 40.535999 45.459 47.493 49.527 54.450001"
             y="0"
             sodipodi:role="line"
             id="tspan948">South Carolina</tspan></text>
</g></g><g
       id="g952"><g
         id="g954"
         clip-path="url(#clipPath958)"><text
           transform="matrix(1,0,0,-1,309.12,677.59)"
           style="font-variant:normal;font-weight:normal;font-size:9px;font-family:Arial;-inkscape-font-specification:ArialMT;writing-mode:lr-tb;fill:#000000;fill-opacity:1;fill-rule:nonzero;stroke:none"
           id="text962"><tspan
             x="0 6.0029998 8.0279999 11.025 15.948 17.982 23.013 24.93"
             y="0"
             sodipodi:role="line"
             id="tspan960">Virginia</tspan></text>
</g></g><g
       id="g964"><g
         id="g966"
         clip-path="url(#clipPath970)"><text
           transform="matrix(1,0,0,-1,301.1,690.55)"
           style="font-variant:normal;font-weight:normal;font-size:9px;font-family:Arial;-inkscape-font-specification:ArialMT;writing-mode:lr-tb;fill:#000000;fill-opacity:1;fill-rule:nonzero;stroke:none"
           id="text974"><tspan
             x="0 6.4980001 11.502 13.554 15.471 17.973 23.021999 26.018999 30.941999 32.976002"
             y="0"
             sodipodi:role="line"
             id="tspan972">California</tspan></text>
</g></g><g
       id="g976"><g
         id="g978"
         clip-path="url(#clipPath982)"><text
           transform="matrix(1,0,0,-1,351.7,714.96)"
           style="font-variant:normal;font-weight:bold;font-size:9.98400021px;font-family:Arial;-inkscape-font-specification:Arial-BoldMT;writing-mode:lr-tb;fill:#000000;fill-opacity:1;fill-rule:nonzero;stroke:none"
           id="text986"><tspan
             x="0 6.1200242"
             y="0"
             sodipodi:role="line"
             id="tspan984">by</tspan></text>
</g></g><g
       id="g988"><g
         id="g990"
         clip-path="url(#clipPath994)"><text
           transform="matrix(1,0,0,-1,366.1,714.96)"
           style="font-variant:normal;font-weight:bold;font-size:9.98400021px;font-family:Arial;-inkscape-font-specification:Arial-BoldMT;writing-mode:lr-tb;fill:#000000;fill-opacity:1;fill-rule:nonzero;stroke:none"
           id="text998"><tspan
             x="0 5.521152 8.8757763 14.396928 17.751553"
             y="0"
             sodipodi:role="line"
             id="tspan996">state</tspan></text>
</g></g><g
       id="g1000"><g
         id="g1002"
         clip-path="url(#clipPath1006)"><text
           transform="matrix(1,0,0,-1,351.7,703.42)"
           style="font-variant:normal;font-weight:normal;font-size:9.96000004px;font-family:Arial;-inkscape-font-specification:ArialMT;writing-mode:lr-tb;fill:#000000;fill-opacity:1;fill-rule:nonzero;stroke:none"
           id="text1010"><tspan
             x="0 5.5377598 7.6791601 13.21692 18.71484 25.7964 31.33416 34.103039 36.832081"
             y="0"
             sodipodi:role="line"
             id="tspan1008">gigawatts</tspan></text>
</g></g><g
       id="g1032"
       transform="matrix(0.75000002,0,0,-0.75000002,463.06533,733.64453)"><path
         style="fill:#455560;stroke-width:0.27698913"
         inkscape:connector-curvature="0"
         id="path1537"
         d="m 3.6839501,11.98809 c 0.4154837,-0.470881 0.941763,-0.692473 1.6065369,-0.692473 0.637075,0 1.1633544,0.221592 1.5788384,0.664774 0.415483,0.443183 0.637075,1.02486 0.637075,1.772731 v 0.166193 H 3.0191762 c 0.027699,-0.830967 0.2769891,-1.468042 0.6647739,-1.911225 m 5.1519973,5.678277 c -0.470881,0.470882 -0.830967,0.803269 -1.135655,0.969462 -0.387785,0.221592 -0.858666,0.332387 -1.3849456,0.332387 -0.5816772,0 -1.1356554,-0.193892 -1.6619348,-0.581677 C 4.1271327,17.998754 3.711649,17.472475 3.4346599,16.780002 3.1576707,16.087529 3.0191762,15.31196 3.0191762,14.370197 v -0.110796 h 6.0937612 v -0.166193 c 0,-0.914065 -0.360086,-1.689634 -1.080258,-2.326709 -0.720172,-0.664774 -1.5511391,-0.969462 -2.5206011,-0.969462 -1.1633543,0 -2.1605152,0.443183 -2.9637836,1.301849 -0.8032685,0.858666 -1.1910533,1.938924 -1.1910533,3.213074 0,1.246451 0.4154837,2.299009 1.27415,3.129977 0.8309674,0.830967 1.911225,1.218752 3.2130739,1.218752 0.7201717,0 1.3572471,-0.138495 1.8835261,-0.415484 0.526279,-0.276989 1.02486,-0.74787 1.52344,-1.384945 v 0 z"
         class="st0" /><path
         style="fill:#455560;stroke-width:0.27698913"
         inkscape:connector-curvature="0"
         id="path1539"
         d="m 20.164803,17.694066 c -0.138495,0.304688 -0.387785,0.553978 -0.747871,0.747871 -0.332387,0.193892 -0.664774,0.304688 -0.997161,0.304688 -0.332387,0 -0.637075,-0.138495 -0.886365,-0.443183 -0.24929,-0.304688 -0.387785,-0.664774 -0.387785,-1.080257 0,-0.470882 0.110796,-0.858667 0.360086,-1.135656 0.221591,-0.276989 0.77557,-0.553978 1.606537,-0.858666 0.443183,-0.166194 0.803269,-0.276989 1.02486,-0.387785 v 2.852988 z m 2.769891,0.332387 c -0.110796,0.304688 -0.443183,0.720172 -0.692473,0.720172 -0.193892,0 -0.304688,-0.0831 -0.360086,-0.276989 -0.0554,-0.193893 -0.110795,-0.52628 -0.110795,-1.02486 v -3.57316 c 0,-0.969462 -0.276989,-1.717332 -0.830968,-2.243612 -0.553978,-0.553978 -1.27415,-0.803268 -2.188214,-0.803268 -0.74787,0 -1.412644,0.221591 -1.994321,0.692473 -0.553979,0.443182 -0.914065,1.052558 -1.080258,1.800429 l 0.415484,0.166193 c 0.166193,-0.553978 0.443182,-0.99716 0.830967,-1.301848 0.387785,-0.332387 0.858666,-0.470882 1.384946,-0.470882 0.581677,0 1.024859,0.193892 1.357246,0.553978 0.332387,0.360086 0.498581,0.858667 0.498581,1.468043 v 0.609376 c -0.276989,0.166193 -0.803269,0.332387 -1.578838,0.553978 -1.246451,0.332387 -2.04972,0.720172 -2.465203,1.080258 -0.415484,0.387784 -0.609377,0.858666 -0.609377,1.440343 0,0.609376 0.221592,1.135655 0.692473,1.578838 0.470882,0.443183 1.02486,0.664774 1.689634,0.664774 0.443183,0 0.803268,-0.0831 1.135655,-0.24929 0.332387,-0.166194 0.692473,-0.470882 1.107957,-0.941763 0.24929,0.803268 0.720172,1.191053 1.412644,1.191053 0.470882,0 0.858667,-0.166193 1.135656,-0.470882 0.24929,-0.276989 0.415484,-0.609376 0.470881,-1.052558 z"
         class="st0" /><path
         style="fill:#455560;stroke-width:0.27698913"
         inkscape:connector-curvature="0"
         id="path1541"
         d="m 13.489365,18.746625 c -0.193893,-0.166194 -0.304688,-0.470882 -0.304688,-0.914064 v -7.090922 h -0.52628 v 0.0277 c -0.49858,0.221591 -2.6590946,0.276989 -2.6590946,0.276989 v 0.387785 c 0.6924726,0 1.1356546,0.0831 1.3018486,0.24929 0.166193,0.166194 0.276989,0.498581 0.276989,0.997161 v 5.151998 c 0,0.470881 -0.0831,0.775569 -0.276989,0.941763 -0.193893,0.138494 -0.609376,0.221591 -1.3018486,0.221591 v 0.387785 h 4.5703196 v -0.387785 c -0.526279,0 -0.886365,-0.0831 -1.080257,-0.24929"
         class="st0" /><path
         style="fill:#6cb33f;stroke-width:0.27698913"
         inkscape:connector-curvature="0"
         id="path1543"
         d="m 4.1271327,9.4120907 c 0.027699,-0.0277 0.083097,-0.0831 0.1661935,-0.166193 2.4929022,-2.409806 5.2350942,-4.404127 7.9772868,-5.816772 1.634236,-0.830967 3.213074,-1.412644 4.708815,-1.717333 3.323869,-0.692472 5.401288,0.110796 6.038363,0.637075 0.110795,0.0831 0.166193,0.166194 0.193892,0.249291 -1.938924,-0.193893 -3.960944,-0.0831 -6.066062,0.332387 -3.794751,0.803268 -7.6448996,2.575999 -11.4396503,5.290492 -0.4985804,0.360086 -0.9694619,0.720172 -1.4403435,1.080258 -0.055398,0.0554 -0.1107956,0.0831 -0.1384945,0.110795"
         class="st1" /><path
         style="fill:#ffdd00;stroke-width:0.27698913"
         inkscape:connector-curvature="0"
         id="path1545"
         d="m 3.2961653,9.6059837 c 0.027699,-0.0554 0.083097,-0.166194 0.1938924,-0.276989 0.8309674,-1.191054 2.1051174,-2.908386 3.1022782,-4.09944 2.3544075,-2.769891 4.5980191,-3.600858 5.7059761,-3.82245 0.553978,-0.110795 0.969462,-0.110795 1.135655,-0.110795 0,0 -0.0277,0.0554 -0.110796,0.110795 -1.191053,0.637075 -4.3764276,2.326709 -7.3402112,5.262794 -0.7201717,0.692473 -1.3572467,1.440343 -1.9112249,2.049719 -0.2215913,0.249291 -0.3877848,0.443183 -0.5816772,0.637075 -0.055398,0.138495 -0.1384946,0.193893 -0.1938924,0.249291"
         class="st2" /><path
         style="fill:#0081c6;stroke-width:0.27698913"
         inkscape:connector-curvature="0"
         id="path1547"
         d="m 24.652027,15.921336 c 0,-0.110796 0.0277,-0.276989 0.0831,-0.443183 0.720172,-2.132816 0.664774,-4.127138 -0.166193,-5.7613744 -1.717333,-3.3792669 -5.844471,-4.7365139 -11.079565,-3.6562559 -2.409806,0.49858 -4.9304066,1.468042 -7.4787062,2.908386 -0.1384946,0.0831 -0.2769892,0.166193 -0.4154837,0.24929 -0.1384946,0.0831 -0.2215913,0.138494 -0.3046881,0.166193 0.055398,-0.0554 0.1384946,-0.110795 0.2769891,-0.193892 0.7201718,-0.49858 1.4957413,-0.997161 2.2713113,-1.412645 2.2159126,-1.218752 4.5703196,-2.132816 6.8139316,-2.603697 5.262794,-1.080258 9.528426,0.166193 11.079565,3.268471 0.52628,1.052559 0.720172,2.2436123 0.581677,3.5454613 -0.166193,1.495741 -0.692472,2.79759 -1.661934,3.933246"
         class="st3" /><path
         style="fill:#455560;stroke-width:0.27698913"
         inkscape:connector-curvature="0"
         id="path1549"
         d="m 13.129279,8.8027147 c 0,0.498581 -0.387785,0.8863649 -0.886365,0.8863649 -0.498581,0 -0.886365,-0.3877839 -0.886365,-0.8863649 0,-0.49858 0.415483,-0.886365 0.886365,-0.886365 0.470881,-0.0277 0.886365,0.387785 0.886365,0.886365"
         class="st0" /></g></g><style
     id="style1535"
     type="text/css">
	.st0{fill:#455560;}
	.st1{fill:#6CB33F;}
	.st2{fill:#FFDD00;}
	.st3{fill:#0081C6;}
</style></svg>